<mxfile host="app.diagrams.net" modified="2023-05-17T06:47:14.867Z" agent="Mozilla/5.0 (Windows NT 10.0; Win64; x64) AppleWebKit/537.36 (KHTML, like Gecko) Chrome/113.0.0.0 Safari/537.36" etag="W4dNPdXayEaAcCXQZziW" version="21.3.2" type="device">
  <diagram id="SdOy9ISkq4zRAe6xSRHK" name="Page-1">
    <mxGraphModel dx="794" dy="430" grid="1" gridSize="10" guides="1" tooltips="1" connect="1" arrows="1" fold="1" page="1" pageScale="1" pageWidth="827" pageHeight="1169" math="0" shadow="0">
      <root>
        <mxCell id="0" />
        <mxCell id="1" parent="0" />
        <mxCell id="uleVtz_lJedK2zeiN2dC-1" value="" style="shape=image;verticalLabelPosition=bottom;labelBackgroundColor=default;verticalAlign=top;aspect=fixed;imageAspect=0;image=data:image/jpeg,/9j/4AAQSkZJRgABAQAAAQABAAD/4gHYSUNDX1BST0ZJTEUAAQEAAAHIAAAAAAQwAABtbnRyUkdCIFhZWiAH4AABAAEAAAAAAABhY3NwAAAAAAAAAAAAAAAAAAAAAAAAAAAAAAAAAAAAAQAA9tYAAQAAAADTLQAAAAAAAAAAAAAAAAAAAAAAAAAAAAAAAAAAAAAAAAAAAAAAAAAAAAAAAAAAAAAAAAAAAAlkZXNjAAAA8AAAACRyWFlaAAABFAAAABRnWFlaAAABKAAAABRiWFlaAAABPAAAABR3dHB0AAABUAAAABRyVFJDAAABZAAAAChnVFJDAAABZAAAAChiVFJDAAABZAAAAChjcHJ0AAABjAAAADxtbHVjAAAAAAAAAAEAAAAMZW5VUwAAAAgAAAAcAHMAUgBHAEJYWVogAAAAAAAAb6IAADj1AAADkFhZWiAAAAAAAABimQAAt4UAABjaWFlaIAAAAAAAACSgAAAPhAAAts9YWVogAAAAAAAA9tYAAQAAAADTLXBhcmEAAAAAAAQAAAACZmYAAPKnAAANWQAAE9AAAApbAAAAAAAAAABtbHVjAAAAAAAAAAEAAAAMZW5VUwAAACAAAAAcAEcAbwBvAGcAbABlACAASQBuAGMALgAgADIAMAAxADb/2wBDAAMCAgICAgMCAgIDAwMDBAYEBAQEBAgGBgUGCQgKCgkICQkKDA8MCgsOCwkJDRENDg8QEBEQCgwSExIQEw8QEBD/2wBDAQMDAwQDBAgEBAgQCwkLEBAQEBAQEBAQEBAQEBAQEBAQEBAQEBAQEBAQEBAQEBAQEBAQEBAQEBAQEBAQEBAQEBD/wAARCANyAd0DASIAAhEBAxEB/8QAHgABAQEAAgMBAQEAAAAAAAAAAAcIBQYDBAkBAgr/xABOEAABAwMCAgMKCwcDAgYBBQAAAQIDBAUGBxEIEhMhNwkUFxgiMVh3ttIVGUFWV5SVlrTR1RYjMlFhk5ckQnGBkSUzRFJicvA0Q1Njof/EABwBAQADAQEBAQEAAAAAAAAAAAADBAUGAQIHCP/EADkRAQACAAMFBAYHCQEAAAAAAAABAgMEEQUSITFBUWFxoQYTMoGRsSI0QnLR4fAjJTM1Y5KTorLS/9oADAMBAAIRAxEAPwD6pgAAAAAAAAAAAAAAAAAAAAAAAAAAAAAAAAAAAABx2RZHj+IWOtybKr3Q2i0W2F1RWV1dO2GCnjTzue9yo1qf1VThNVNUsI0XwK76laiXqO12Kyw9NUTO63PVV2ZFG3zvke5Ua1qdaqqIZbwbRvP+NO8UutHFPbq2z6dNkbV4bpcsrmRviTrjrrsibLLK5NlbCvU1F2VERXNcHNVHGFqnrdV1Fn4K9GnZVQQyPgkzzLHSW3HI3tVWqsLeqesRF23SPlVP5KnWeaPhW4nNQ/8AV648a2XUTZet1q06o4bFBTp8rG1XK6aVPP5T27mqKC30FqoYLZa6KCjo6WNsMFPTxtjiijamzWta1ERrURNkRE2Q9gDKidzl0fm/eXTU/WW51PnWpq85qnSqv81VqIm//Q/l3AjeMa/1OkvF9rli9S3rjhrsgbd6Bq/Iq007ER3/AFcatAGSJcr4/NA1WpzXFcc1/wAUgTeauxmBLRkcbPMr1ol3gmXzbRw+UvX1onmsmhfExpBxEW2pqdOcjV1ytq8t1sVwiWlulsejlaraimd5TdnIqcybsVUVEcuxUyBcQfCVjWrlwi1LwO81Gn+rVnZzWfMbSnRzK5E6oaxidVTA7+FWvRVROpOrdrgvoM8cM3Epfs8vN20N1ysUGK6yYfEjrpbmL/pbxSdSNuVA5f44X7oqtTdWKqIvn2TQ4AAAAAAAAAAAAAAAAAAAAAAAAAAAAAAAAAAAAAAAAAAAAAAAAAAAAAAAAAAAAAAAAAAj3F7q7U6G8OGdaj2yRW3aitq0lo5U3d8IVL209MrWp1u5ZZWOVE+Rq/8AIEWpaJ3GpxP19ddUSq0X0KunedHSOajqbIsrYn72V/ySRUqORERepXORetr3IbKJXwuaO0+g2guHaZtjb39brcya7Ted09xm/e1Ujned28r3oiqqryo1PkQqgAAAAAAAAGduMPQ3I88x22av6Pq2h1d0ykfd8Yq4493V7Goqz2yVE26SKdnM1Gqu3MqJuiOfvR9AdZcf1/0jxzVfHGrDBeqXmqKRzt30VWxVZPTv/wDkyRrm9e26Ii+ZUKEZK0AiXRLjI1d4fo9oMdzejh1QxmnROWOCSaTve5Rs/wBvXOjXIxu3K1vm26wNagAAAAAAAAAAAAAAAAAAAAAAAAAAAAAAAAAAAAAAAAAAAAAAAAAAAAAAAAAAAAAAAGU+PJv7Q1mgmmcnlUuUatWV9fH8k1HStlmljX+iryL/ANDVhlTjSX4O1U4Yshn6qaHVKntrnL5ulqqaRkaf8qrVA1WAAAAAAAAAABlPiMb+zHGjwx5xTeQt0nyPFq9U/wD3YpqJr4Gr/RsqOcasMqcWK/CHExwq47D11M2XXe5Nann6KloOeRf+ER6AarAAAAAAAAAAAAAAAAAAAAAAAAAAAAAAAAAAAAAAAAAAAAAAAAAAAAAAAAAAAAAAAAMzd0Rxm73XhmueaY3B0t701u1uzm3t/k+gnR8rt083LA6d2/8AQ0yerdLZb73bKuzXakjqqGvgkpamCRN2SxParXscnyorVVF/5A9DDMss+eYhZM3x6oSe15Bbqe50ciKi80M0bZGL1f8AxchzJkjguyCt0eyjLOCHOa163LA5pLrhdTUOTmu2MVMrnwq35XPge50b+vq3RqdTFNbgAAAAAAAADJyypqx3R+JtKqTWvQzBXpUSNXmSG83h2yR/yTejaq/z8lU2LvrfrDieguluQ6rZpUIy3WGkdMkKPRslXOvVFTx7/wC+R6tYn8t916kVSZcEmleU4PpjcNQdTYVbqHqpdZsvyVHN2dTPn64KRE/2thi5U5f9rnPTzIBocAAAAAAAAAAAAAAAAAAAAAAAAAAAAAAAAAAAAAAAAAAAAAAAAAAAAAAAAAAAAAAAAAAQTir4fr9qrbrHqNpNdqewatae1Drjit1kanRz7p++oKn/AN0Ezd2qi9SKu/mVyL73DPxOWLX2z19lu1qlxTUbFn96ZZiNcvLVW6pb1K9iL1yU7l62SJumyoi9fntpCuILhQxnWW50eomKZDX4BqlZI+WzZlZk5ahiJ5oamPdG1UC9aLG9fMqoioiuRQuoMhU3FhrNw8p8B8Z2k1b8F0yqxmo+F0j6+zzxp5pKunanTUjtkVV6lRV/hYiF9034gdENX6aOo0z1VxnIVlRFSno7jGtS3+j4FVJWL/RzUUCgAHF5DlGM4lb3XbK8itlloWbq6puFXHTRN28+75FRE/7gcocTlWV43g2OXDLswvdHZ7LaYHVNbXVcqRxQRt87nOX/ALInnVVRE3VTOuW90D0jfd5cK0Fs191rzFE2ZbMPpnTUkaqq7Onr1ToIo+pd3tV+23Wm3WcLZOF/VviIyGjz7jbvlvls9DK2ptGl1imctnpJEVVbJXy7/wCtlRP9vXGi77KrXKwDh8Dt+Tcd2qVm1qzKyVNp0JwetWswix18Ksmyi4s3a27VMa+aBnX0TF8//CvR20jx01NT0dPFSUkEcEEDGxxRRtRrGMamyNaidSIiIiIiHkAAAAAAAAAAAAAAAAAAAAAAAAAAAAAAAAAAAAAAAAAAAAAAAAAAAAAAAAAAAAAAAAAAAAAAPxURyK1yIqKmyovykQ1E4I+FDVSpkrsy0MxmSsmXmlq7fA621Ejv/c6WldG9zv6uVVLgAMNaicA2hmJ5fpdYcXuuoFrtuV5ZUWe4UtPmFdyLTMsV1rGtZzPVWr01HB17+ZHJ8pS7D3N/g8s1e27V+lb8ir27f6jILxW3Dm/oscsqxr/1aUXWTtF0J9YFZ7K34qoHEYviGJYPaY7BheL2iwWyH/y6K10UVLAz/iONqNT/ALHLgAAAAAAAAAAAAAAAAAAAAAAAAAAAAAAAAAAAAAAAAAAAAAAAAAAAAAAAAAAAAAAAAAAAAAAAAAAABKtZO0XQn1gVnsrfiqkq1k7RdCfWBWeyt+KqAAAAAAAAAAAAAAAAAAAAAAAAAAAAAAAAAAAAAAAAAAAAAAAAAAAAAAAAAAAAAAAAAAAAAAAAAAAAAASrWTtF0J9YFZ7K34qpKtZO0XQn1gVnsrfiqgAAAAAAAAAAAAAAAAAAAAAAAAAAAAAAAAAAAAAAAAAAAAAAAAAAAAAAAAAAAAAAAAAAAAAAAAAAAAAEq1k7RdCfWBWeyt+KqSrWTtF0J9YFZ7K34qoAAAAAAAAAAAAAAAAAAAAAAAAAAAAAAAAAAAAAAAAAAAAAAAAAAAAAAAAAAAAAAAAAAAAAAAAAAAAABKtZO0XQn1gVnsrfiqkq1k7RdCfWBWeyt+KqAAAAAAAAAAAAAAAAAAAAAAAAAAAAAAAAAAAAAAAAAAAAAAAAAAAAAAAAAAAAAAAAAAAAAwroplnHnr/jN0zXDtbtP7TbaPILnZI6a54qsk6d61Do0cr43I127Uau+zetVTbqRVDdQMqeDvujvpFaVfdGX3h4O+6O+kXpV90ZfeA1WDKvg77o76RWlX3Rl94/PB33R30i9KvujL7wGqwZU8HfdHfSK0q+6MvvDwd90d9IvSr7oy+8BD+NrjR1Z4f+IbFcOvukduyKjs16TKsMrKComp3V8NRaK+2LSzsVJeeZlRWvcqxq3mZExORvSo5u+tPps3qcGsNTqVBa4Mrmt8Et5gtbHtpIatzEWWOLne9ysa5Vaiq5d9t+rfZMd6g8JvGfqlk+G5hnWsekdzu2A3J11sNQ/E52rS1Co3r2R6I5OZkT9l3TmiYvyHevB33R30i9KvujL7wGqwZU8HfdHfSL0q+6MvvDwd90d9IvSr7oy+8BqsGVPB33R30i9KvujL7w8HfdHfSL0q+6MvvAarBlTwd90d9IvSr7oy+8PB33R30i9KvujL7wGqwZ/wCCXVbUHWHSC45NqZeKS53qiyi62Zailom0kToqWVImq2Nqry78quXdzl3cvXsiGgAAAAAAAAAAAAAAAAAAAAAAAAAAAAAAAAAAAAAAAAAAAAAAAAAAAAAAAAABlTub3YTkHrAyT8Ypqsyp3N7sJyD1gZJ+MUDVYJ/qDq5Jg+T2bDbTptlWY3i9UlVXxU1jktsfRQU7omyPkfXVdMz+KaNERquVd16uo8uOa1af3yitTrne6TGrtd6qe3wWO911LBcO/IZVimp2sbK9sr2yIrd4XyNXqVrnIqKB3sHU6PVvSq40F/ulv1NxOqosUfJHf6mG9Uz4rS+PfnbVPR+0Ct5XbpIrduVd/MeCs1p0ct+NWvM6/VnDabH75P3tbLtNfqVlHXTeV+7gmV/JK7yXeS1VXyV/koHcwdQ1K1VwnSWxUWSZveaa30FfcqO1Qyy1EMTVmqZWxsXmle1vKnMr3bKqoxrlRF2PBhGsmnefXCexWPJre2+0z6vpbLNWwJcGxU9TJTunWna9z0hdJG7leqbKip5l6kDuwOAxjP8AA82qLnR4Zm1hv09kqVornFbLlDVPoahFVFimSNyrE9Fa5Fa7ZeperqOJtGsWnl2zCvwB2S2+hyOirZqKK11tZBFV1vRQxyyS08POskkbWyt3cjepUduibbqHdQdMzTWHTnA8LrM9veV2tbVSWue8RuhroOaqpoUbzugVz2tk63xtRebbmkYm6cyHE4zxF6NZXVZRBa9QbD0OH0dLcbvVvu1L3vT0tRAkzJ3PbKqMjRq9b38rUXfZVTrApIOmXDWnRy04zRZpddWcMo8euMazUd2qL9Sx0VTGj2sV0c7nox6I57G7oqpu5E86of1qLqzgml2ByalZbf6Onx9i0yNrO+oWRyJPIxkbmSSPaxUXnR2/N/Ciqm4HcQdcZqPp5JlNLg0eeY67JK6jS40tnS6QLXT0qoqpOyDm6R0aoi+WjVb1L19R2MDKnc3uwnIPWBkn4xTVZlTub3YTkHrAyT8YpqsAAAAAAAAAAAAAAAAAAAAAAAAAAAAAAAAAAAAAAAAAAAAAAAAAAAAAAAAAZU7m92E5B6wMk/GKarMqdze7Ccg9YGSfjFApWp+j0upGsOI3q6Nv8FgtNiutPUVllyWss07KmWWkWJiyUVRDO9rmxyry7qzdqb9fKfyuilPZc2tjcOtC0FmocMvFmhr5Kt080VZV1FPIr5JJHunmkerHyPlernOciq5yud12MAY3wjQzU22WGobk+Kah3arxvHqKx0TKu+YxTumfTVcUzZLUlJSsbI2N0CSxLcpI+ZVRkkaI+Rydru2F6uvxmx3dMMzCbI3TXKHv6glxiO6sp6hYl5LxTyp8GzslWJOmko16VEZGkaLzPUvOc6h4vp1b6e45NNcVSsn72pqa2WmrudXUScquVI6akilmfs1rnOVrFRqIqqqJ1nS4uJDAnZdd7DUd/Q2q143QZI29LbqxaaoiqpJGMiYvQcrpPIYjWNe6R73qxrOZjkA9vVHGsquOmVloLTj8Vyu1pulir57fa3RU7HtpauCWZtP072MaiNY/la56dSIm+50S0aL5XBQYzDHYYrbVwZNltwrKpJoVfTRXBtakE27X7u5ulp1VGqrk2TdE5ervsXEZpPLaqa6pdb4xau6uscdBLjF0juXfyQrP0LqF1OlUx3RIsic0SIretFVFPNp/rRa89wnIc2gsF5ooMeuN0oJaee2VjJpko5Xs5445IGSSK9GIvKxjlRyqzrc1UAmPDNpPqDhmR09bnFJmca49jMWMwz3yux91LMjJWrtRR2umZM+nTo+ZslY9kqI/bot3Pcn5PplqDPnmUWyDTeKjpMg1Et+WR5U2spFjbR0dPRtVJWJKlSk71hlhYjY3N5HKr3s35V5vEeL/AAK+RW2pyW2XTHqa52O0XhksturpegWufMzaoRKZq00LHwoiVM3JE/pG7Km6c1DqdZtOaTOo9OZ75O28ySspkVLbVOom1L2c7KZ1akferKhzPKSB0qSq1WqjdnIqhAYdL9Zrti1NhtXptNbm45gOR4rHVzXSifHcqyfvdKeSnSOZzmwyNid1zNjc1yKjmomznc/kWC6lXhcjuMWl9wmSSsxTJKegqa63J3+tAkffFv36d7W1LVi3ar1bArlj/fbcytqeU60Y9h+plu08vtJV00NbYK+/z3d9LUd50kVK+NHJLMkSwsTle9yudK3l5WoqbyN3/ii4gNLa/H7jkcF3uzYbXPDS1FFNj1xhuSyzbLC2OgfAlXL0iLvGscTkeiKreZEXYJxg+lGY1Oo0GoeRYK2z0dyrshuqWqoqaaaW1Oq6eigjbL0Uj4lll6Cokf0LnsRZFRXKq7rzc+n2ZUHChacApMZkqMitVmtka2mnqKdr3y00sL3wskfI2Hm2jcjVWRrN9vKROs7HadfcVyHUHGcHsVuvNVFk1mrrtDXyWiugbTuppo4nwTtkp0SCRHOejmyujexzGtc3me1CnAZvuOneodfndfZ49OZYqK85xa83blj62i6Kigp4qdJKWSNkqVK1SJTvhTkjfCscu6y/xNNIAAZU7m92E5B6wMk/GKarMq9ze7Cch9YGSfjFNVAAAAAAAAAAAAAAAAAAAAAAAAAAAAAAAAAAAAAAAAAAAAAAAAAAAAAAAAADKnc3uwnIPWBkn4xTVZlTub3YTkHrAyT8YoGqwABN9cMHyPOLDQU2M2S1XOqo6tZ+jqsluWO1EaKxzeenudua+op3dezmoxySMVzFVqL19HyTR7WuemuTrHl1unuVzxC1Wapucl2qbdVy1VJVSSSxpLBA58LJ4p5I++Y3JNEuz2sc7rTQAAztprw9Zri9/t18vdTbkjhy12SSU0mR3K+TwRus7qJYUra9qz1Dmyruj38icnmazZGFL04wvI8Yx7JMdvnwaja6+XauoJ6SpklV9PVzyTNWVro2dG9qyq1WtV6bNRebr2TvwAznYuH3UCLT+/45d5sbgudzwa04nTupq2eaJJaN1SiyPe6BjkY9ssbtkaqovMnWiI535Lw25CzWSoyqOOkrMfuGQ0+TzVNTml+hdTzxxsToW2WB7KCZ3PCxzah70VObyoZFYiu0aAI9rfo1ftVbn3vRVlBT2q5YpecauE0tTNHUUy1awPimiZGz95s6DZzekiVEdu126bHSrFw951b8ZySSrxnHpb1dJLfHDSVeo+T3KWSGlV6o9t5qFWpoJEdK50a09OvReUiuk592aWAEdwbTPUfH8iwe/X240Fx+CbNdbVdG1F5qquekZUzwTU8cNTND0ld0SQNiWadYpHp+8du5VaWIAAAAMq9zf7Cch9YGSfjHGqjKvc3uwnIfWBkn4xTVQAAAAAAAAAAAAAAAAAAAAAAAAAAAAAAAAAAAAAAAAAAAAAAAAAAAAAAAAA+f/BRxUcO+j2lmQYhqZq5j+P3r9uMhqloqqdelbE+tejXORqLy78qqiL17bL5lQ+gB1TwT6WfRpiv2NTe4BKvH84NvSExT+9J7o8fzg29ITFf70nuFV8E2ln0aYp9jU3uDwT6WfRpiv2NTe4BKvH84NvSExX+9J7o8fzg29ITFP70nulV8E2ln0aYp9jU3uDwTaWfRpin2NTe4BKvH84NvSExT+9J7o8fzg29ITFP70nulV8E+ln0aYr9jU3uDwT6WfRpin2NTe4BKvH84NvSExT+9J7o8fzg29ITFf70nuHl1e0y02ptQdEIafT3Goo6rPKuGdjLTTtSViYxfHo1yIzyk52MdsvVu1q+dEKh4JtK/o0xT7GpvcAlXj+cG3pCYr/ek9weP5wbekJiv96T3Cq+CbSv6NMU+xqb3B4JtK/o0xT7GpvcAlXj+cG3pCYr/AHpPcHj+cG3pCYr/AHpPcKr4JtK/o0xT7GpvcHgm0r+jTFPsam9wCVeP5wbekJiv96T3B4/nBt6QmK/3pPcKr4JtK/o0xT7GpvcHgm0r+jTFPsam9wDPXc06ulr+H+9V9DVRVNNU55kU0M0L0eyRjqtVa5rk6lRUVFRU6lRTWBx9kx6wY1SvoMcsdvtVNJIsz4aKmZAxz1REVytYiIq7Nam/n2RP5HIAAAAAAAAAAAAAAAAAAAAAAAAAAAAAAAAAAAAAAAAAAAAAAAAAAAAAAAAAAAAAAAAAAABKtZO0XQn1gVnsrfiqkq1k7RdCfWBWeyt+KqAAAAAAAAAAAAAAAAAAAAAAAAAAAAAAAAAAAAAAAAAAAAAAAAAAAAAAAAAAAAAAAAAAAAAAAAAAAAAASrWTtF0J9YFZ7K34qpKtZO0XQn1gVnsrfiqgAAAAAAAAAAAAAAAAAAAAAAAAAAAAAAAAAAAAAAAAAAAAAAAAAAAAAAAAAAAAAAAAAAAAAAAAAAAAAEq1k7RdCfWBWeyt+KqSrWTtF0J9YFZ7K34qoAAAAAAAAAAAAAAAAAAAAAAAAAAAAAAAAAAAAAAAAAAAAAAAAAAAAAAAAAAAAAAAAAAAAAAAAAAAAABKtZO0XQn1gVnsrfiqkR1XzPD7lqVpFDbsrs9VJjuolbDeGQ10T3W6RMTvz1ZUIjv3LkZ5Wz9l26/MV+w3+w5TZ6TIcYvdBd7VXxpNSV1BUsqKeojXzOjkYqte3+qKqAe+AAAAAAAAAAAAAAAAAAAAAAAAAAAAAAAAAAAAAAAAAAAAAAAAAAAAAAAAAAAAAAAAAABBKvjx4QKCqmoa7XvGqapppHRTQzPlY+N7V2c1zVZuioqKiovWioXsx13PnB8LyXRO/V+R4hZLrUx55kcLJq23xTvaxK16o1HPaqom7nLt5t1X+YFF8fzg29ITFf70nujx/ODb0hMV/vSe4VXwTaV/Rpin2NTe4PBNpX9GmKfY1N7gEq8fzg29ITFP70nujx/ODb0hMV/vSe4VXwTaV/Rpin2NTe4PBNpX9GmKfY1N7gEq8fzg29ITFf70nujx/ODb0hMV/vSe4VXwTaV/Rpin2NTe4PBNpX9GmKfY1N7gHyY49qLha1+4hsF1G0517xWnoclqIbXnNTFVci0cMKIja/lc3949adHRbJ8sUKf71VPoDjnG3wOYjj1sxTHNdMQoLTZqOG30NLFLIjIKeJiMjY3yfMjWon/Qs3gm0r+jTFPsam9weCbSv6NMU+xqb3AJV4/nBt6QmK/3pPcHj+cG3pCYr/ek9wqvgm0r+jTFPsam9weCbSv6NMU+xqb3AJV4/nBt6QmK/wB6T3B4/nBt6QmK/wB6T3Cq+CbSv6NMU+xqb3B4JtK/o0xT7GpvcAlXj+cG3pCYr/ek9weP5wbekJiv96T3Cq+CbSv6NMU+xqb3B4JtK/o0xT7GpvcAaa6qafaw43+1+meUUmQWXvh9KlbSo7onSsRFc1quRObbmRFVOrfdPOinazKnc3uwnIPWBkn4xTVYAAAAAAAAAAAAAAAAAAAAAAAAAAAAAAAAAAAAAAAAAAAAAAAAAAAAAAAAAyp3N7sJyD1gZJ+MU1WZU7m92E5B6wMk/GKBqsAAAAAAAAAAAAAAAAAAZU7m92E5B6wMk/GKarMqdze7Ccg9YGSfjFNVgAAAAAAAAAAAAAAAAAAAAAAAAAAAAAAAADpmpepcOm8NgjjxC+5Pc8nuy2a12uzLSNqJ6hKSpq3qr6ueCFjWwUc7lV0ib8qIiKqoh3MlWsnaLoT6wKz2VvwDwyai+idqr9pYr+sjwyai+idqr9pYr+slVAEq8Mmovonaq/aWK/rI8Mmovonaq/aWK/rJVQBKvDJqL6J2qv2liv6yPDJqL6J2qv2liv6yVUASrwyai+idqr9pYr+sjwyai+idqr9pYr+slVAEq8Mmovonaq/aWK/rI8Mmovonaq/aWK/rJVQBKvDJqL6J2qv2liv6yPDJqL6J2qv2liv6yVUASrwyai+idqr9pYr+sjwyai+idqr9pYr+slVAEq8Mmovonaq/aWK/rI8Mmovonaq/aWK/rJVQB8w4eP7iY094ucs0VpdKMh1Gss9175pcbqI6N1+s0c7WTPgZUW2Sop3RQrM5ESRz1RjWI98So5G6I7nDcIafh2yK6XFq0UUWc5LUTpMrd4GpVOc7mVqqnkpvvsqp1dSqaTxXT7BsHqbvW4hiVps9TkFfNdLtUUdKyOWvq5XufJNM9E5pHq57l3cq7b7JsnUZv7nZQ0Vz4fMottyo4Kukqs7yeGeCeNJI5Y3VbkcxzXbo5qoqoqL1KigfmmmoeS0OZ1Gd3TA8qx+i1OpbhJT3e6TW59FW1ESST2pIIoqqWojXvFsiKk0MSL0bd05upf6sOZ67U2NW+Kv1cfd7vluD2u+RunorVROoq6WpgimitqviZCskjJnJDHVrK3pujRzuRVaaer8Zxy60NLbLpj9trKOhkjlpaeopI5IoHxptG5jXIqNVqdSKiIqfIencMAwS7Wx9lumFWGst0lv+CH0lRbYZIXUPV/pVY5qtWHyW/u9uXqTq6gIK7UvUe1WC20K5nfe/rx8IYvFJkFttjLlQX500HevTNo0WkqJGRyTKqwL0LkjTyeZHHFZDrZq5ebVZp8XiyN0eSX6mxzlsEVobcaaWntklRWPpnXRY6VZHVKLC5JuZEbA/kZzdaaRtmC4RZLRa8fs2HWOgtdjkSa10VLb4YqehkTm2fBG1qNicnO7raiL5S/zU/i74BgmQY5U4ffsKsNysNZI6aptdXbYZqOaR0iyOe+FzVY5yyKr1VU3Vyqvn6wIlpfm2red5PgVuyDL57TCyy3euvFNRttNTJcpqS4RU8KTyQd8wxqsbndMynlbyybo1W8ux13XezXpdS87uNDltexZbFhzKehmhpnUkMq3yRGP6okmXlc1XbLLsvO/fdOVG6atmLYzZUoks2O2ygS20fwfRd7UkcXe1Lu1egj5UTkj3YzyG7N8lvV1IeG54Thl7urL9ecRstfc44G0zK2qoIpZ2wtlbK2NJHNVyNSRjXo3fZHNR3nRFAzdlepOs+LT1OmttyHKsqq35yliivNspLFBfG0brSlejI0rEgtrpEkVY0c+PdYkXyHv8s73a9U8+o+Fy76lXmGlflFmtlzfzSS0lQ10lNJKxks/eEssHPsxrpWRSK1r0e1OXbZKjfcAwTKLbc7Nk2FWG72+9SMmudJX22GohrZGI1rHzMe1WyOajGIiuRVRGN28yHJ22zWiz2mnsNotVHQ2ykgbTU9FTQNighhamyRsjaiNa1E6kaibbAZvTUPPsKyWrxar1lmyqkpKvDWpca+jtsc/Jcq2Zk7JFpoIovLYkaMVGNVGKzbdyq93G5rrNqtdr5Ph+E1uTVMdRk2Q0bK7FY7Elwp4rfFTckDPhdzKRzEfLKsirzyqjPJ2RHObarPw/aQWJ1/pbZgNhgsmS0VPQXDH2WqlbapY4pJpN1pmxoxznuner1dujlRq7Iu6ry1y0g0mvOM/sVeNL8Rrse6ZlT8E1NkppaLpWtRrZOgcxWcyNRERdt0REQCG2rVHVq8z4PlV8yauoLVPbbO67sxdbDcrbDV1MnI9Lk1ZpKrkmV0bYH2+V7U3c56ua3r6paMmynSqx3K+UN7kv9XRyajXSnfdqCic+GSnrmcqNfDDE5sfNzPe1HJzb9a7NYjdT1umunNyyC0ZZccAxuqvmPx9DaLnNaoH1dvj2VOSnmVvPE3ZVTZionWp7FDguE2u4VF3tuHWOkrqyWeeoqoLfDHLNLMjUme97WornPSONHKq7uRjd99kAzxd841bsVRcNPbRrDNfKla/EpYslqbXQLU00Vzq1jqabkggZTL+6j54lWNXNSVquWRERVr2iVzyirs+RWXLcoqcjq8dyOttMV0q6angqKmBiRvjWVtPHHDzoknKqsjYi8qLyou52CwaZab4paUsOLafY1ZrYlalySit9pgp4Eq0cjkqOjYxG9KjmtVH7c26Iu/Uc5RWy221ah1ut9NSrVzuqahYYms6aZyIjpH7J5TlRERXL1rsgHyJs/GhrVwv8Pl4t2mmjNTWUtwzbInuzS4ROntlHK+ue3oEjj6um6kVOle1N9tmSJvtt7hq1x1dumg+FXrINGNUc/uV2tbLnV5FFW4rFFWy1DnTO6NnwrErI2LJ0bGujjc1sbUcxrkVE4/uddFR3Lh+ye33CkhqqWpzzJopoJo0fHIx1W5HNc1epyKi7Ki9RpfDsKxLTzHabEcGx2gsVko3zSU1voIGw08CyyvlkRkbfJYiySPdsiIic3UiIB0Twyai+idqr9pYr+sjwyai+idqr9pYr+slVAEq8Mmovonaq/aWK/rI8Mmovonaq/aWK/rJVQBKvDJqL6J2qv2liv6yPDJqL6J2qv2liv6yVUASrwyai+idqr9pYr+sjwyai+idqr9pYr+slVAHV9Nc/odTcSjyygs9ztKLXXC2VFBckh75pauirJqOpiesEkkSq2anlTmZI9qoiKiqinaCVcNPZ1d/WBnftVdCqgAAAAAAAAAAAAAAAAAAAJVrJ2i6E+sCs9lb8VUlWsnaLoT6wKz2VvwFVAAAAAAAAAAAAAAAAAAAAADKnc3uwnIPWBkn4xTVZlTub3YTkHrAyT8YoGqwAAAAAAAAAAAAAAAAABlXub3YTkPrAyT8Ypqoyr3N7sJyH1gZJ+MU1UAAAAAAAAAAAEq4aezq7+sDO/aq6FVJVw09nV39YGd+1V0KqAAAAAAAAAAAAGP8AHOPDUTNKasuOC8HOoGS22juFVbHV9suNJJA+enldFKiKqo5NnNXqc1F2VF260OV8cHXb0CtVfrdH7wGqwZU8cHXb0CtVfrdH7x++ODrt6BWqv1uj94DVQMqeODrt6BWqv1uj94eODrt6BWqv1uj94DVZKtZO0XQn1gVnsrfiU+ODrt6BWqv1uj946hnHEVxAZZk+nt+p+BjVCCPDMknvk8b6mkVaiN9ouNAjGqjupUdXsfuvVsxyedUA20DKnjg67egVqr9bo/eHjg67egVqr9bo/eA1WDKnjg67egVqr9bo/eHjg67egVqr9bo/eA1WDKnjg67egVqr9bo/eHjg67egVqr9bo/eA1WDKnjg67egVqr9bo/eKtw268Q8ROn1TnkOJVeN97Xiss0lBVVUdRKyWmcjJFc6PyP4+ZE5VcmyIu/XsgVUAAAAAAAAAADFWnHDLxt6PWi4YzpnrnprbLLW3ivvKU9Vj1RVytlqp3SuR0jnJzbcyNTZrU2anVuqm1QBlXwed0c9IrSr7oy+8PB33Rz0i9KvujL7xqoAZV8HfdHfSL0q+6MvvDwd90c9IrSr7oy+8aqAGVfB33Rz0i9KvujL7w8HfdHPSK0q+6MvvGqgBjDLKPuiWJ37C7DUa+aXzyZnfJbHBIzE5ESney21ter3IrutFZQPZsnXu9q+ZFOyeDvujvpF6VfdGX3iraydouhPrArPZW/FVAyp4O+6O+kXpV90ZfeHg77o76RelX3Rl941WAMqeDvujvpF6VfdGX3h4O+6O+kXpV90ZfeNVgDKng77o76RelX3Rl94eDvujvpF6VfdGX3jVYAinCTohlWgOl9bhWY3y1Xa5VmQXG9yVNsjkjgXvqRJFajJN3N2crk23d1Ii77qqJawAAAAAAAAAAAAlXDT2dXf1gZ37VXQqpKuGns6u/rAzv2quhVQAAAAAAAAAAAyp3N7sJyD1gZJ+MU1WZU7m92E5B6wMk/GKarAAAAAAAAAAAAAAAAAGVO5vdhOQesDJPximqzKnc3uwnIPWBkn4xQNVgAAAAAAAAAAAAAAAAAAAAJVrJ2i6E+sCs9lb8VUlWsnaLoT6wKz2VvxVQAAAAAAAAAAAAAAAAAAAAACVcNPZ1d/WBnftVdCqkq4aezq7+sDO/aq6FVAAAAAAAAAAADKnc3uwnIPWBkn4xTVZlTub3YTkHrAyT8YpqsAdLz7V7CdNa62WrJn32avvLJ5KKjs2N3K8VEjIeTpXrFQwTPa1vSM3c5ETyk6zuhFdW76zDNa8AzW6WDKK6z0tmvtFUVFjxq43lYJpn0SxNkjoYJnsRyRSbOc1E8lesCj4xqFimZWq2XvGa2qrqO6ySwxPbb6hroZY0d0kVSxzEdSyMVjmOZOkbmvTkVEd5J2MylcMVynI1fmC4ll1DbsoyW+3anpqGhdT3WloZLE+ljmdFJy97zyvj52sl5HI6VjXo1+7U6czHsWs2BY7QV+lkcWJft3RyTUljwC546l0hbQVPTp8AT9JO5WtaiScjV76TmRGO8yhsubJLLT5HSYlNW8t2rqOevgp+jevPBC+Nkj+bblTZ00abKqKvN1Iuy7cmY+t+L5ZZrDNX49pffEsTcXy1tgsnetZRupbfPXUjqSkWOPknp3LE2R7KVFZKjE6NEYqcreEwfHbzppjWWah2nB6ChpsYuloyCw0Noweqw2irmyQS0lXHDb6ueR8czmyK13OrHPeyJVZsrHPDbgJHl2DZpbOGq74VhdXKmWPsUzWzw9UktdKivne3Z7FVz3ukVNnsVVd/E3+JIDp7o5Ff6W22WrweOpweszC2y1Fjh0vrMVs7GR0FWk8i2yuqZ5OR7nQsme+OKKRyJt0iq5wG2gZPueklntWL3W/XfSuaut9x1GrKjLaOnsD6qruthjnqUp43U8bFmq6Vkj4ZUga2RHNV6tY7dd/PpDpXHX5vhN0venNfTYxZqXJKzGKK8W1yNs9NJcKR9vjWKVv+kkbE17ooXI2SJicvKzkVrQ1SAABlTub3YTkHrAyT8Ypqsyp3N7sJyH1gZJ+MUDVYAAAAAAAAAAAAAAAAAAAACVaydouhPrArPZW/FVJVrJ2i6E+sCs9lb8VUAAAAAAAAAAAAAAAAAAAAAAlXDT2dXf1gZ37VXQqpKuGns6u/rAzv2quhVQAAAAAAAAAAAyp3N7sJyD1gZJ+MU1WZU7m92E5B6wMk/GKarAAAAetWWy23GSlluFvpql9DMlTSumia9YJka5qSMVU8l3K5ycybLs5U+VT2QAPRuljst771+GrPRV/eNSyspe+qdkvQVDN+SVnMi8r27rs5NlTddlPeAAAAAAAAAAyr3N/sJyH1gZJ+McaqMq9ze7Cch9YGSfjFA1UAAAAAAAAAAAAAAAAAAAAAlWsnaLoT6wKz2VvxVSVaydouhPrArPZW/FVAAAAAAAAAAAAAAAAAAAAAAJVw09nV39YGd+1V0KqSrhp7Orv6wM79qroVUAAAAAAAAAAAMqdze7Ccg9YGSfjFNVmVXdzd0D6aomgyXUql75qJqqSOly6pp4ullkdJI5scfKxvM9znKjURN1UfFv6FfPHVX771n5gaqBlX4t7Qn54aq/fes/MfFvaE/PHVX771n5gaqBlX4t7Qn546q/fes/MfFv6E/PHVX771n5gaqBlX4t/Qn546q/fes/MxXxo2fh84X9atO9M7dkupNwpaudlwzRz8zrpJaO2SO6ONIeV3/nbdLLyr17MjTzSboH1+Bk6i7nXw/XKjguNvzrVCppaqJs0E0Wc1b2SxuRFa5rkXZUVFRUVPOinm+Le0J+eOqv32rPzA1WDKnxb2hPzx1V++1Z+Y+Le0J+eOqv32rPzA1WDKnxb2hPzx1V++1Z+Y+Le0J+eOqv32rPzA1WZV7m92E5D6wMk/GKfnxb2hPzx1V++1Z+Za9EdEcN0Aw2TBcFnusttluFRc3OudYtVOs86osqrKqI527kV27t13cvX5kQKAAAAAAAAAAAAAAAAAAAABEtfeLPTnQqro8RSnrsw1BvKtjs2F2BnfFzrHuReVz2pv0EXVusj/kRVajtlQDGHH9Dxc6e8TGC0miuod8nsuo15ZUY3TVKtq47Nflo5bbUMhfMx600S01bJJsioxFllejUWJHN+jen2K1OD4NYcQrcjumQVNnt8FHUXa6VL6irr5WMRHzyyPc5yve7dy9fVvsnUiGTpOGXil4hlj1S1y1ur9M8mt/+rwvGsQej6TGqnrRJqx6rtXTOjc+J7d+XlkkRHbO5U5zE+LTPNFMjotK+N/H6TGqusmWms2odtav7OXrb+HpXeeinVOtWvRG+dfIbtuGtgeOmqaesp4quknjngnY2SKWNyOY9jk3RzVTqVFRUVFQ8gAAAAAAAAAAAAAAAAAAASrhp7Orv6wM79qroVUlXDT2dXf1gZ37VXQqoAAAAAAAAAAAAAAAAAAADL2uPDVoPdNXdOsgvWl9ku1zz/PamLIqu5xOrZa2JmK3nki5plcsUbVp4HNjj5WtdDG5ERzUVNQkq1k7RdCfWBWeyt+A73hWHY7p5iVowbEaKSjslio46C300lTLULBTxt5Y4+klc57ka1EROZy7IiJ5kOaAAAAAAAAAAAAAAAAAAA4bM8poMHxG9ZndYKmejsdBPcaiKma10z44mK9zWI5URXKjV2RVRN/lQ4Cwaw4fk1JhtfZ3Vc1Pm8M81BIsbW9AsMKyysqEV28b28rmK1EVUe1UXbbcDvAJdbNfbPcbjSyvwXLKPFLlUx0dtzCpgpUtVbNI9GRI1jahayNj3rysllp44nLsqPVr41fUQAAAHH3/ILFitmrMjya80VptVvidPV1tbO2GCCNPO573KjWp/VVJFr7xZ6c6FVdHiKU9dmGoN5VsdmwuwM74udY9yLyue1N+gi6t1kf8AIiq1HbKhLbBwv6rcSN4o9Q+Ny8Q/BVPI2ptGlllqXJaKByLux9wla7/WzJ1bpvyIu+yq1ysQPDcuIbWziwuFTh3B1QLjeExyyUl01XvdGvQrt1PbaaZ2zp5POnSORGoqL/B5L1sugPC3phw90tXXY7T1l6yy8eXfMsvcy1d2ukq9bnSTO3VrVXr5G7N6kVd18pavbrdb7PQU9qtNBT0VFSRthp6anibHFDG1NmsYxqIjWonUiImyHsgDiMtxDF88x2uxLNMfoL3ZrlEsNXQ10DZYZWL8itd1b/Ki+dFRFTZUOXAGNqjRjX/g4qZL7wwz1eoul6SdLW6Z3esc+utkXne60Vb1Vdk8/QP3369ke526XXQXiW0o4i7JNcMBvUkd0ty9Hd8fuMfe11tMyLyujqKdV5m7ORU5k3YqoqI5VRdqoQXXrhDwvV+8w6kYleq/TzVK2M/8NzKwr0dSip5o6qNFRtVEuyIrX9fL1I5EVUUL0DJOJ8WmeaKZHRaV8b+P0mN1dZMtNZtQ7a1f2cvW38PSu/8ARTqnWrXojfOvkN231lTVNPWU8VXSTxzwTsbJFLG5HMexybo5qp1KioqKioB5AAAAAAAAAAAAAAAASrhp7Orv6wM79qroVUlXDT2dXf1gZ37VXQqoAAAAAAAAAAAAAAAAAAACVaydouhPrArPZW/FVJVrJ2i6E+sCs9lb8BVQAAAAAAAAAAAAAAAAAB1DV+w3bKdKcwxqxUvfVyuljraOkh6RrOkmkhc1jeZyo1N1VE3VUT+akwl0czS36v47V2ilgdg1XTXKtuid8ok1quk9F3u/o2OXZ8c6rzryfwyte5UXpFVL8AM/QY5qhecGs+gN20xqqKltHwbS1eXPuFC+1VFHRyxPSSmibMtZ072xNRGS08bGPV/7xzWtWTQIIlr7xZ6c6FVdHiKU9dmGoN5VsdmwuwM74udY9yLyue1N+gi6t1kf8iKrUdsqAV2/5BYsVs1ZkeTXmitNqt8Tp6utrZ2wwQRp53Pe5Ua1P6qpkq5cQ2tnFhcKnDuDqgXG8JjlkpLpqve6NehXbqe200ztnTyedOkciNRUX+DyXr5rBwv6rcSN3o9Q+Ny8Q/BUD21Np0sstS5LRQORd2PuErXf62ZE23TfkRd9lVrlYmtrdbrfaKCntVpoKeioqSNsNPTU8TY4oY2ps1jGNREa1E6kRE2QCE6KaH6M8MuRwY5aqS53jNsst9Zdbxmd7mSqr7glM6FJnT1D3czEVZ2KjGJyeSqu603Ww4bn2C6jWl1+09zSw5PbGyugdW2a5Q1sCStRFViyROc3mRFTdN9+tDo+q+B3rLMtoq2nxll5tTcSv9qq6d9wSkSaWqWk6ODpE3eznSKROdrVRu3Xt1b+TQe153Q267Veb2y+0jqmaFtJ+0kdn+GXRsZyqlRJaP8ASvjb1Ni88iNR3Ou6oB2iPVjS2bILticOpWKvvlggdVXa2NvNMtXb4Woiuknh5+eJiI5qq56IiIqfzPaxPULAc9+EP2FzjH8j+CahaSv+CbnDWd6TpvvFL0TndG/qXyXbL1eYy5cdI9eL/d69a/HbzHSU1PldJDb0dj9LZmvrqedKea3tpmJWKkjlb0rquVHdJJzcioqvZc9P9P7ji+o1ZeUsUNFbH4bY7NFJG6PrnpZKrni2avNsxsseyqnL19SrsuwdrTUzTdcwm08TUDGlyqngWqlsfwtB8IRwo1HLI6n5+kRnKqLzK3bZdzwWPVvSnJn3aPG9TcTuzrBA2puzaG9U062+FzVc2SfkevRNVrVVHP2RURV+QgUmm2t911bp7jcLHeYLFassuVzbBCuP09jfTT0dVFDU0yRM+EpKlVkj6damRqK+R6sa9qN5ORt+iOR23EMWtU2nyVTbZpk7H6+iprlT00q1yT0sqQMl3c3nRY5nscu8SvTZzkRyqBcce1Q00y63QXjFNQ8ZvVBVRVE0FVb7vT1MMscCok72vjerXNjVzUeqLs1XJvtueW5ai6fWa1TX2753j1Dbaahiuc1ZU3SCKCKjkVUjqHSOcjWxOVFRr1XlVU6lIUmnOsF9w2nudXZ7q6/TX2amet/dZ6e8SWisp20tTNXutn+hlezZr2Ni8pYoIWr+83OPyPQnUxLCtztT7xTV+OZRSSWqnsM1t+EJbJRR1EdMlP8ACCSUaSo6qe9GTojdmJ1sfyuQLTluRaF55i9BjWaZJhV6sGdQNZbqWuuFLLT3qJ6tRq06OdtPur2cqx79bmqi77GdKjRjX/g4qZL7ww1FXqLpeknS1umd3rHPrrZF53utFW9VXZPP0D99+vZHudulB0R0fyvFcnxTI79YbrA2ntuSS1L7vX26etpqm4XCmnayVKCKGna97WSOc2Bj42Lu3pH9TnaIAlegvEvpRxF2Sa4YDepI7pbl6O74/cY+9rrapUXldHUU6rzN2cipzJuxVRURyqi7VQguvXCHher95h1IxK9V+nmqVsZ/4bmVhXo6lFTzR1UaKjaqJdkRWv6+XqRyIqovQ8T4tM80UyOi0r438fpMbq6yZaazah21q/s5etv4eld/6KdU61a9Eb518hu24a2B46app6yniq6SeOeCdjZIpY3I5j2OTdHNVOpUVFRUVDyAAAAAAAAAAABKuGns6u/rAzv2quhVSVcNPZ1d/WBnftVdCqgAAAAAAAAAAAAAAAAAAAOr5/priWptDb6DLILmqWmuS5UFRbLxWWurpanoZYFkjqaOWKZirFPNGqI9EVsjkVFRTtAAlXi06dfOPVX/ACxlX6iPFp06+ceqv+WMq/USqgCVeLTp1849Vf8ALGVfqI8WnTr5x6q/5Yyr9RKqAJV4tOnXzj1V/wAsZV+ojxadOvnHqr/ljKv1EqoAlXi06dfOPVX/ACxlX6iPFp06+ceqv+WMq/USqgCVeLTp1849Vf8ALGVfqI8WnTr5x6q/5Yyr9RKqAJV4tOnXzj1V/wAsZV+ojxadOvnHqr/ljKv1EqoAlXi06dfOPVX/ACxlX6iPFp06+ceqv+WMq/USqgCVeLTp1849Vf8ALGVfqI8WnTr5x6q/5Yyr9RKqAJV4tOnXzj1V/wAsZV+omeK/hw1a4Q9Rr7rlw12WDUyyZDL0+S4vfFbNkaM8730N2k3nn82/QzOeq7dXO5UVNuACV6C8S+lHEXZJrhgN6kjuluXo7vj9xj72utqlReV0dRTqvM3ZyKnMm7FVFRHKqLtVCC69cIeF6v3mHUjEr1X6eapWxn/huZWFejqd080dVGio2qiXZEVr+vl6kciKqL0PE+LXPNFMjotK+N/H6TG6usmWms2odtav7OXrb+HpXf8Aop1TrVr0RvnXyG7bhrY6lnuqeGaapRJlVVckkuCyLBBbbNW3ObkjRFkmfFSRSvjhZu3mleiRtVzUc5Fcm/aaapp6yniq6SeOeCdjZIpY3I5j2OTdHNVOpUVFRUVCXa4afZlmr7NU4bbLRPU0SzMWqlya54/W0XPyKksNVQMe6eNFYivpJWpHKqMVz05NlDm7trfpjZMlt+J3DI5ErbktO2KaG3VU1FE+o/8A07J6yON1NTPl6ujbNIx0iuajEcrk34NnEbglsx6C+5itZa31VxulFFS0NBV3WVIaGqkglqpG0sLnRQJ0bXPle1scfSNa5/Wir0DJuGXLLpqS7Iu/Ka9UF6rbRcLxW1mX3y2JDPRRwse5LRQPjo610i07HNdK+Po3O60laxrD0cs4X84q0t12tElBcblC+/Uk9K3Nr3jkLaavuD6uKZZ7YiSVCsRWtfTSNRjt15ZGK3dwWq8616bWK92+wVl8qpqi5RwywzUNqq62kYkyKsCS1UET4IHTbbRNke10qq1GI5VRF6pjvFPpvcdPLBn+QxXyypf0qHx0H7P3OoqYY4Hq2WeSJlMksdMzyVdUPjbC3naiv6038eH6Zam6Y5EtBgsWITY3eEti3KqrqyuSotyUlJFTPipaVUk6dsjIGcrpKpixq5Vck22zp7euGXUmssmMSxwWiqu1ht9yx+Smps+vthp5KOap6WGrWe3Rxyyv2aiPpJG8i8y8syK3mcFR1J4ksBwF1LQUdQ6+XOqqLTG2KljnWljjr6qKCF8tYyJ9PE9yS9JHG97Xyo3yEVF3T2rfqtl6ZvQWbJtOYrRjuQXGqtViuC3R77hPPAyR6vqaF1OxKeJ7YJXRvbNKqt6NXNZz+T0S5aB6j2qnqMSwebE0x27zY9W1tTW1da2ejktq0rHw08CpL0kckNK3lfJUI6NyrzJNvuljpsRj8Iddm9dA2aVbbBbrfLJU9ItMzne+dscXRJ0POvRK5ySPWTo2IqN6NNw7OARLX3iz050Kq6PEUp67MNQryrY7NhdgZ3xc6x7kXlc9qb9BF1brI/5EcrUdsqAV2/5BYsVs1ZkeTXmitNqt8Tp6utrZ2wwQRp53Pe5Ua1P6qpjfNtX9R+OKluWlfDTh9tg0zqZH0N91Iy2zsqaCoa1dnMtlDMm1U9FTqke3lRU/2LyvXmbBwv6rcSN4o9Q+Ny8Q/BVPI2ptGlllqXJaKByLux9wla7/AFsydW6b8iLvsqtcrE1tbrdb7PQU9qtNBT0VFSRthp6anibHFDG1NmsYxqIjWonUiImyATvh50CxXhw04odN8SvN/udLSNRX1F2uUtQrpP8Acscbl6KnYqqv7uJrW/z3XdVpoAAAAAAAAAAAASrhp7Orv6wM79qroVUlXDT2dXf1gZ37VXQqoAAAAAAAAAAAAAAAAAAAAAAAAAAAAAAAAAAAAAAAAAAAAAAOIy3EMWzzHa7Es0x+gvdmuUSw1dDXQNlhlYvyK13Vv8qL50VEVNlQ5cAY2qNGNf8Ag4qZL7ww1FXqLpeknS1umd3rHPrrZF53utFU9VXZPP0D99+vZHudul10F4l9KOIuyTXDAb1JHdLcvR3fH7jH3tdbVKi8ro6inVeZuzkVOZN2KqKiOVUXaqEF164Q8L1fvMOpGJXqv081StjP/DcysK9HU7p5o6qNFRtVEuyIrX9fL1I5EVUUL0DJOJ8WueaKZHRaV8b+P0mN1dZMtNZtQ7a1f2cvW38PSu/9FOqdateiN86+Q3bfWVNU09ZTxVdJPHPBOxskUsbkcx7HJujmqnUqKioqKgHkAAA4+/5BYsVs1ZkeTXmitNqt8Tp6utrZ2wwQRp53Pe5Ua1P6qpItfeLPTnQqro8RSnrsw1CvKtjs2F2BnfFzrHuReVz2pv0EXVusj/kRytR2yoS2wcL+q3EjeKPUPjcvEPwVTyNqbRpZZalyWigci7sfcJWu/wBbMnVum/Ii77KrXKxA8Ny4htbOLC4VOHcHVAuN4THLJSXTVe90a9Cu3U9tppnbOnk86dI5Eai7/wAHkvWy6A8LWmHD3S1ddjtPWXrLLx5d8yy9zLV3a6Sr1udJM7dWtVevkbs3qRV3Xylq9ut1vs9BT2q00FPRUVJG2GnpqeJscUMbU2axjGoiNaidSIibIeyAAAAAAAAAAAAAAAABKuGns6u/rAzv2quhVSVcNPZ1d/WBnftVdCqgAAAAAAAAAAAAAAAAAAAAAAAAAAAAAAAAAAAAAAAAAAAAAAAAAABxGW4hi2eY7XYlmmP0F7s1yiWGroa6BssMrF+RWu6t/lRfOioipsqGTajRjX/g4qZL7ww1FXqLpeknS1umd3rHPrrZF53utFU9VXZPP0D99+vZHudumyQBG9JOLbQzWHC7nmdnzKmsqY9G5+RW2/PbQV1iVq7PSrikVOjRHIqc+6sVUVEcqoqEeuXENrZxYXCpw7g6oFxvCY5ZKS6ar3ujXoV26nttNM7Z08nnTpHIjUXf+DyXr2Lie4aNDdSNYNHsizDTy31twv2WzWe8TMV8PwnRRWO6V0cNSkbmpO1tRQ0r059+qPl/hVUXTVut1vs9BT2q00FPRUVJG2GnpqeJscUMbU2axjGoiNaidSIibIBKNAeFrTDh7pauux2nrL1ll48u+ZZe5lq7tdJV63OkmdurWqvXyN2b1Iq7r5S2AAAAAAAAAAAAAAAAAAAAAJVw09nV39YGd+1V0KqSrhp7Orv6wM79qroVUAZ6q9X89x/U3Ue0Xy4xPxlr/g3G520rEdbbnHa46vopHI3Z7Zkke5iyKuzoVZ187UNCk+yfQ/Ccwseb49f+/wCekzydlVXq2dI5KWZlPFDHJTPa1HRPYkEb2u3VUem++3UB0ObiHymy2ahrI8JhyCgsGL2q/wCZXR91bSVFOyrj33pKVkL21L0SOWR7HPgajeVGK9V5Uu09ZT09FJcJX7QRRLM53/wRN1X/ALEsvnDbil7koov2rymhtrbTRWO8WylqadKa/UVJ/wCRHV88Lnt23eirTvhV6Pc16ubsiU2ltzoYKmmq6+eujqJJHI2dsTUijd5oW9GxvkNTqTm3dt53KBnrIeJLUSp06vl6ten1ustddMOrcsw6qkvq1DaijhRnM6qRKRW09Q1k0MiRNSeN3NyrImyly0/gv9PhNkjyq6zXK8d4xOraqaWGR8szm7uVXw09PG7rXbdsEaKiJ5KHQLXwy4hQW26WisyvKrrSVdiqMZtkddU07vgK1z/x09IrIGqqdUfl1CzSbRsTmVE2WtUtOykpYaSNXKyGNsbVd51RE2Tf/sB5QAAAAAAAAAAAAAAAAAAAAAAAAAAAAAAAAAAAAAAAAAAAAEq1k7RdCfWBWeyt+KqSrWTtF0J9YFZ7K34qoHr3Bte+hqGWuenhrHRPSnkqInSxMk2Xlc9jXNVzUXbdEc1VT5U85IsT1nyfNbtRYdbbTbaLJLA6Vc7hnbJJFbei3YxkKI5qqtS5Okhc5V2hRXOaqqiLZTrFnwr4JyjLcl+E+l/ah1I7oeh5e9uhp0h/i5l599ubzN283X5wIfw/8QV91Wnss9x4gtFbpcLhRSVlVhFjtjmXyncjVVYVkddpVR0a7c6upk8y9Tfk9zSLiBzLPM1obJcMgwSpraySdt4weGCW2ZLibGNVUlqmVVUr6yNHdFGr46WFrkmjkYrmKm/atK9LdZ9OrPY8Ir9VcNumJWWl7wSCnwyso7nJA1itZtV/CskbJEVWqr0gVF2XZrd0VPYtmkeoE+R43VZvqjQ32x4bVLWWeGPH3U90mlSCSBjq6tdUyMn/AHcr1d0UECvfsq9W7VCsgAAAAAAAAAAAAAAAzxg2a3HAOH/I8gs1LSz3J+pGX26hbVKvQNqKrMrhTxvl2VqrG10qOciKiqjVRFRV3OVxfVjVCHUmPTfNW4tWSRZD8DyV9roqimSoh+BkrelSGSaToX9Lu3kV8qIxE8pVXdPa0Nxux5fo7kuM5LbYq+2XHOs8hqaeTdEe1cqunyoqK1UVEVHIqKioioqKiKeWz8LWm1ukvMdYl1q6e4XqmvtHN8M3CO5UdVFRspVetxSo77mc9jFa5zpPKY7o3I5qATbJeKnUZtvtEeKWGGe6PtVXe6hlJhd6v8Ve2Otmp4aOP4O5lonSJA5e+ZukYir1RuRHbd9fqrqXLqfQWOrhtuMWO6Q0zaGmu+LXOR9U+anR6v8AhVkjaSCVszliShljbM/onKj287duy3Phz0futjtWNy4xVUtts0M1LTQW+811FzU0r+eSlmdBMx1RTucu6wSq+Jf/AGnKx6OaewZhHnFNaKuC4xrG9tPDdauO3LLHGkbJlt7ZUpHTNYjWpMsSyIjWojvJTYM/6fau6mYnglDV5Jc6HJ7/ACYzTSU1W9K6GF9TVXl9JCs8TqmZFaznarnps9zW8vM1NkTtUurOvDMppNJY6jA5MpTIX2qrvyWmr+D+9H2uSuinZQd+dK2RrmtidGtSqKnlo5u/IlLodBtKqC111kjxmSehuNHLb54au5VdSiU0k7p1iZ0srliakr3OYjOXo+pGcqNRE9nFtF9OcNShfY7LVrU2+vmukdbXXWsrqyWrlhWF8s9RUSvlqHdEvRp0rn8rUajdka3YJOmuuq8tmw++VsOPWSirqd3wrcJcculxt9VVxVUkE0XfNNJtaIkbEkiVFW2Vn71G9axuVe7XHVzJ4tVqbAamwUeL2h/RujvN7irJEuL1l5EpqZ0UKULXyp1x81ctQmy70ip1nK1OgGldTUW2pWxV8HwY18bIaW919PBVRumdMsVXDHM2OsjSSSRyR1DZGt53o1ERyotEAgd1yDUXDs11cuFdl1RfJLbhMF6tFBDTJBS0LkfcOjZHCrn8z1SKPnke5Ve5F2RjOWNvV7fmOV6TZJJjthvl6yijuWO2i9zfC9yqLjJFWTuqmzSsklc90ccvRMVIWq2JnIvRtaiqho12J48++V+RS2yOSvulBFbKySRzntmpY3SOZGsaqrNkWaTfq3Xm2XdETbiMH0nwPTqOrjxWzTRLWrGkslZX1NfIkcaKkULH1Mkjo4Y0c5I4WKkbOZ3K1u6gduAAAAAAAAAAAAAAAAAAAAAAAAAAAAAAAAAAAAAAAAAAEq1k7RdCfWBWeyt+KqSrWTtF0J9YFZ7K34qoAAAAAAAAAAAAAAAAAAAAABKuGns6u/rAzv2quhVSVcNPZ1d/WBnftVdCqgAAAAAAAAAAAAAAAAAAAAAAAAAAAAAAAAAAAAAAAAAAAAAAAAAAAAAEq1k7RdCfWBWeyt+KqYv4kuNrQzTzW7C8O1BrL5jt004zKW63COrtb5G1tDNjN1iiqaR8PO2Rjpqyni2crHI967tRrXubrDT/ADGn1Cwew53SWW6WinyC3wXKCiukTIquGKViPYkrGPe1j+VUVW8yqm+y7LugHYAAAAAAAAAAAAAAAAAAAAAEq4aezq7+sDO/aq6FVJVw09nV39YGd+1V0KqAAAAAAAAAAAAAAAAAAAAAAAAAAAAAAAAAAAAAAAAAAAAx/jnHhqJmlNWXHBeDnUDJbbR3Cqtjq+2XGkkgfPTyuilRFVUcmzmr1Oai7Ki7daGwDKnc3uwnIPWBkn4xQHjg67egVqr9bo/eHjg67egVqr9bo/eNVgDKvjg67egVqr9bo/ePzxwddvQK1V+t0fvGqwBlTxwddvQK1V+t0fvDxwddvQK1V+t0fvGqwB8u+KLGc44n9UNOdScj4FtUaR+H1SMvFMrqKRL3bWv6VlI93OnKiSc6b/8Atnl+Xl20ynGBrq1Ea3gJ1URE6kRKuj941WAMqeODrt6BWqv1uj94eODrt6BWqv1uj941WAMqeODrt6BWqv1uj94eODrt6BWqv1uj941WAMqeODrt6BWqv1uj94eODrt6BWqv1uj941WAJVw268Q8ROn1TnkOJVeN97Xiss0lBVVUdRKyWmcjJFc6PyP4+ZE5VcmyIu/XslVMqdze7Ccg9YGSfjFNVgAAAAAAAAAABKuGns6u/rAzv2quhVSVcNPZ1d/WBnftVdCqgAAAAAAAAAAAAAAAAAAAAAAAAAAAAAAAAAAAAAAAAAAAMqdze7Ccg9YGSfjFNVmVO5vdhOQesDJPxigarB0TM9bNO8DvX7OXuvu1XdW07KyeislguF4npKd6uRk1SyhgmWnjcrHo18qMa7kfsq8rtu42q6W2+WykvVmroK2groWVNNUwPR8c0T2o5r2uTqVFRUVFA9oHG3rI7Njzrcy8Vne63Wujt1InRvf0lQ9HK1nkou26Md1rsnV5zkgAAAA4zIcksuKW9t1v9b3rSvqaejbJ0b37zTythibsxFXypHsTfbZN91VE3U5MAAAAOOyPIbPidhr8myCs71ttrp31VXP0bn9HExN3O5WIrl2RPMiKp5qC6UtyfUspmVKd6ypE901LLC1yqxr943PaiSN2cnlMVW77t33aqIHtgADKnc3uwnIPWBkn4xTVZlTub3YTkHrAyT8YpqsAAAAAAAAAAAJVw09nV39YGd+1V0KqSrhp7Orv6wM79qroVUAAAAAAAAAAAAAAAAAAAAAAAAAAAAAAAAAAAAAAAAAAABlTub3YTkHrAyT8Ypqsyp3N7sJyD1gZJ+MUDteQVty06yrUWmvVPn9thzWtpLlZslxDGZL7O3kpYoX0qxspqtsDmOgVUdUQNhc2o8lyuR/JK8qwa/y4fYKfVzSfIsguy4MyhxaGgsEdTJZcl6eVUlVbc1aW21HK6kVKtqRRM6J+0rUTZdqACKa1YdSXzG9MarNsNblFTj+U2iqrVbZnXSSnk6N8b52xxxvejUkcxXPRuzU8pyo1qqk/0tw+qodYLXV0ent9teaUt9vtRnOSVFonp4LtbJem7yjWve1Yq9vlUaxRRySLA2JzVSLlVq6rAGYdadH6fLM11EzaowWqu14oLNjrsarO8pJn01XBU1L3yUTkRVZMiObzuj2dy8qO6tkOn0OA5TTcQlXfcvs81VWRX271ldV0emdfU1Vbjz4ZUipJr6lWlNUUqsdC1tCyCSVJGMToVVqymzgBknLNNqmt08ult1D00uWQzpc7DdbdHU2pby+lsUFwiVtBtHC5XTU8TpudiI970kcqOkTm5abxD2i1V8WEVuVYNcMqwS3XZ819tFHZJbqqotM9tJLJb4o5JahkcysXlbG5WOVr1aiMVzbSAMNWZbxa9NskhtOn+X3BmW4XerLZoqG01NcrauO6XJy01RJEj0gejJmKjpnNa9Uc1rnP2ReauOn2fy8QkN2uVLKyvW/2qrslxg08ra6tprRHTQNnp231K2KkoqZXNqUlpZI+dyvc5scrnsVdhW62W20UqUVpt9NRU6PfIkNPE2NnO9yve7laiJu5znOVflVVVetT2QMT3DTGlu9r1eslDpM+7SXPHrp33VV+BVluus9V03SQwVVW98lLkEiuRyxS07f3LYkRFVZU35u84balhkqco0ovV00yTNYayvsEWJ1dS2ah+AqaKke61MiWWeGKpRiLGkD+jexHK1vROVuvQBiaXQu4ZTht/nzbTS5XGqtWAVD8TguFG+pqbdP3/XyUEcK7KrK2GndTNbyr0saO5d+td9n2vpvgyk755+m6CPpOffm5uVN99+vfc9oAYa4DbPrnW6RZHPgOouC2a0rnmRI2lvGF1lyqEf347mcs8V0pmqi/InRIqfzU0h+znFP9MmlX+NLj+ukq7m/2E5D6wMk/GONVASr9nOKf6ZNKv8aXH9dH7OcU/wBMmlX+NLj+ulVAEq/Zzin+mTSr/Glx/XR+znFP9MmlX+NLj+ulVAEq/Zzin+mTSr/Glx/XR+znFP8ATJpV/jS4/rpVQBKv2c4p/pk0q/xpcf10fs5xT/TJpV/jS4/rpVQB0zSPArhpthTcbu9+p7zcJ7td71W1tNQuo4ZKm43GprpUjgdLK6ONr6pzWtdI9eVqbuVd1O5gAAAAAAAAAAAAAAAAAAAAAAAAAAAAAAAAAAAAAAAAAAAAMqdze7Ccg9YGSfjFNVmVO5vdhOQesDJPxigarAAAAAAAAAAAAAAAAAAGVe5vdhOQ+sDJPximqjKvc3uwnIfWBkn4xTVQAAAAAAAAAAAAAAAAAAAAAAAAAAAAAAAAAAAAAAAAAAAAAAAAAAAAAAAAAyq7ubugfTVE0GS6lUvfNRNVSR0uXVNPF0ssjpJHNjj5WN5nuc5UaiJuqmqgBlX4t/Qr546q/fes/MfFvaE/PDVX771n5mqgBlX4t7Qn546q/fes/MfFvaE/PHVX771n5mqgBlX4t/Qn546q/fes/MfFv6E/PHVX771n5mqgBhrUXgO0ixrL9LrLa801QbTZZllRZ7ij8zrHK6nZYrrWNRq7+SvTUcC7/wAkcnynevi3tCfnjqr99qz8yraydouhPrArPZW/FVAyp8W9oT88dVfvtWfmPi3tCfnjqr99qz8zVYAyp8W9oT88dVfvtWfmPi3tCfnjqr99qz8zVYAyp8W9oT88dVfvtWfmPi3tCfnjqr99qz8zVYAn+iOiOG6AYbJguCz3WW2y3CoubnXOsWqnWedUWVVlVEc7dyK7d267uXr8yJQAAAAAAAAAAAAAAAAAAAAAAAAAAAAAAAAAAAAAAAAAAAAAAAAAAAAAAAAAAAAAAAAAAAAAlWsnaLoT6wKz2VvxVSVaydouhPrArPZW/FVAAAAAAAAAAAAAAAAAAAAAAAAAAAAAAAAAAAAAAAAAAAAAAAAAAAAAAAAAAAAAAAAAAAAAAAAAAAAAAJVrJ2i6E+sCs9lb8VUlWsnaLoT6wKz2VvxVQAAAAAAAAAAAAAAAAAAAAAAAAAAAAAAAAAAAAAAAAAAAAAAAAAAAAAAAAAAAAAAAAAAAAAAAAAAAAACVaydouhPrArPZW/FVJVrJ2i6E+sCs9lb8VUAAAAAAAAAAAAAAAAAAAAAAAAAAAAAAAAAAAAAAAAAAAAAAAAAAAAAAAAAAAAAAAAAAAAAAAAAAAAAAlWsnaLoT6wKz2VvxVT5h8f0PFzp7xMYLSaK6h3yey6jXllRjdNUq2rjs1+WjlttQyF8zHrTRLTVskmyKjEWWV6NRYkc36N6fYrU4Pg1hxCtyO6ZBU2e3wUdRdrpUvqKuvlYxEfPLI9znK97t3L19W+ydSIB2EAAAAAAAAAAAAAAAAAAAAAAAAAAAAAAAAAAAAAAAAAAAAAAAAAAAAAAAAAAAAAAAAAAD51cJnCZp3r9p3fM6zrKtQIrlFmF8tjW2zK6ulgSCCrekSJEjla3Zqo3ZuybNTq86r9FTKnc3uwnIPWBkn4xQHxb2hPzx1V++9Z+Y+Le0J+eOqv32rPzNVgDKvxb2hPzx1V++9Z+Z+fFvaE/PHVX77Vn5mqwBlT4t7Qn546q/fes/MfFvaE/PHVX77Vn5mqwBlCXua2gM74pJsq1RkfA/pInOzSrVY3cqt5mqq9S7Ocm6fIqp8p5Pi3tCfnjqr99qz8zVYAyp8W9oT88dVfvtWfmPi3tCfnjqr99qz8zVYAyp8W9oT88dVfvtWfmPi3tCfnjqr99qz8zVYAyp8W9oT88dVfvtWfmPi3tCfnjqr99qz8zVYAyp3Nx03gDvMM1ZV1Pe2cX+ljkqqmSol6KKo6ONrpJFc93KxjWorlVdkQ1WZU7m92E5B6wMk/GKarAAAAAAAAAAAAAAAAAAAAAAAAAAAAAAAAAAAAAAAAAAAAAAAAAAAAAAAAAGVO5vdhOQesDJPximqzKnc3uwnIPWBkn4xQNVmbdQuIC8WPWHJNPpuILRfTems8FudRU2Y2189bcFqIle97F+FqRFa1yI1EbG7r86mkiS3bTPV6g1EyTN9NtTMPtNNk0dClTRXzDqq5yRyU0Sxo5k0Nypk2ci77KxVRflAXbiHs2P5Y/EazD8nuUdvr7bartkFvpaX4Mo6iubF3s5zX1PTqx7pWt/dxy8nnfs3lc71Jdfq266lYziOMYbdEsVzv8AX2Spv9dTRpSVb6WlqXytpFZN0rXMngRiumiax6c3Rq/ZXN5W56MVV4jyF9dlUSVORXuyXuZ8VvVrIn0HequY1qyqu0i0q7Krt2I//fy7rx9l0KvtmzO1XKLPaVcVsF+r8gtllZZeWoZNWx1CTslq+nVJGJJUvfHyxMVqKrXLJ5KtDidT9fsvwTNMpx+lwmSS12C1WK4x3KSOOVkzqy4Op5mIxlR0zl6NF6NOiTy2P5lVFYjudZxE2d9umYunuYMyeO9ux9mKPjoUuU1WlP3zsyTvrvNWLT/vudahGo3yVVH+QefPNF6/M8tr8ggyynoaO50FppKmlfbHTS89BcFq43slSZqNRyOkY5qsVetrkcnKrXcBqZwv2bUea73C41OOXCrq8iiyKhpcjxqO8WyGRtvZROiqKR8rOnarGuejmvic1yt2XZqo4Ox5TrK6PQW/6xYRj9bX1VstVZVw2uriZHPFVU/O2SGdjpWNRY5GPR6Nk6+R3I527d/SdxE2ijuFBbrlg2UtZzW6lvtxhio5KSwVta1iwU9Vy1KyOc5ZYkV1OyZjOkYr3tRVVORtWi9FatDqzRimrrbRx11rrLe+ptdjp7dSwvqEfzOhoqfljjY1Xrys3Vyoicz3OVXr0K7cJFuvef2/P7pNgFbXvfbam8Vldp/S11xdUUbGMT4OqqmaRaGJ6RM5mOZO5vlLG+Ny86BzuWcRFxpcKzfJsR0tymqZjltuVVarnUw0a266TUb1jlazlq0ljRr2ruk7YHPax/R86oUCszettmBUmYVGE5BW19TT070sVvghnrnTy8qJD1S9A3ZzuuR8yRNRFc6RGoriaS8NFVX3rOLvc8nx2ObL7TXWla204oy33GobUJytkuk8c6suL4WojYl6KHlRXedXKp2zUjSi6akaU02n9zv9nWuiWikqZqqyOqbVXugc1zoqigdUIstPJyqjoVn823lLt1hwc3ExbmUtFBSaT55W5BV1NxpH47BHbe/qeai6NZ2ySOrEpepkzXtc2dzXJ1IqvVGrxWonFJTWzAJ8k01w6+X+tfi0eUJK6iYlJa6eZrlpnVzXTRyrzuY9vJAkj28jnO5WJznv6W8NVFpfX0VVbbzaoqWimu87LdarBHbaOJ1wbTc7IYY5FbFGx9O5Wt2VVSREc5XNV7+LuHC/fWYtHimMamUtrp7hilNieQTTWDvmWthp2ydBLTr3w1Kd6LNIjkckyOY7ZORyI9AvdPI6anilciIr2Ncu3m3VDyH8QR9DDHDzb8jUbvt59kP7Ayp3N7sJyD1gZJ+MU1WZU7m92E5B6wMk/GKarAAAAAAAAAAAAAAAAAAAAAAAAAAAAAAAAAAAAAAAAAAAAAAAAAAAAAAAAAGVO5vdhOQesDJPximqzKnc3uwnIPWBkn4xQNVnR9Vc+v8AgtHYo8WxWkv92yG8R2ekpqu5OoIGSPilkSSSVkMzmsTouvaNyoiqqIu2y94ODyTEbblFZYq24T1Mb8eubbrSpC5qI+ZIpYka/dq7t5ZnLsmy7onX50UInbuMfEavVxmmtRJiUcL7rV2FWxZbDJe4a6mje+R8tqWJr2UirFK1kySK9V5FWJrX8yclduJW54xpxUas5fhFotGLXCKglxy4zZPG2GoSsmZFAlwdJCxKD/zWPe5nfDGsR/lK5EY7udBoxQW3L5Mios5y2C0S1dTcXYtFWQx2laydHJNM5GRJUvRyve7oXzug53K5I0ciKnFUXDrZKSxT43NqFm1XboGU8digmr4Gsx9tPK2WnWkSOBqSOjeyPZ9V3w/lbyOcrHPa4OjW/iwjybGKPJ8ct9tu9Xb7ndbfX0mNZLT3K2VklJbZKtEgrUpldPG5qM5VayF6P3RyKjVa7nM64qsbxC21t1igsrKBKy2Wqgul7vzbVbZK6rpnVStqal0T0poo4OicsnLIrnSoxGb+fu1n0foaF9lrL7muU5PcbNcKq5d/Xiqhe+plnp307mvjiijhjjSN68scEcTUVOZUVVcruJtHDph2Oaf0eBY3fsjtjrZdJLzbb0yqimuNFVuV6I5jponxOayJ6wNjkjexIkaxWqiIB7+k+s1t1X0sdqTZ6OiqFp3VlPUU9qu9PXU0lTSveyRKas3ZFLE5zN2Su6NFa5quRnWicBoNxEUmtN4v9jj/AGLmmslPSViVOJZhHkVGsdQsqJHLMyGJIqhqxLzRoj27OaqPdud1p9M7Y/Tiv01yDIL/AJFSXakqqS43C61vS1tUlQjklcr2tayP+NeVkbGRsTZGMa1EQ9DTvSGmwC7VWQVGc5PlF1rLbS2qarvT6RFWnp3yuhRsdLTwxMVvTObu1icyIiu3du5Q6rbeI2OXLcztV6s9gorRhtNXVdYkWSslvtPDTb/v6q1OhY6CGXlcsMjZpedqxuVGI/q89TrHqba7LSS3rSS0096yO40tDi9LFlSSUlb08Ukv+qnWlbJSvjjikdI1kE7f4UjfKqry847RG0V99r7nk+YZPkdtqoq2Kkst1np5KS2tq2KyoSCVkLapUc1zmoks8iMa7ZiMRGonHN4fYJLK623HVrUC4V1NVU1VZrrUVtGlRZVp2ubE2miZTNpnbNfI1zp4ZXyI9Ukc9EajQ4iycQuS3u+WPG2abU1JcJI7u/JEqL25IbUttqIYahIHspnLVo7pkfEqth5monMkaqqN9PQfizxTXLKVxu1S4q9ay0rfLallyuC7VMdKj2tWO4QMjYtFUp0ka9Eiyt/jTpN2Kh3bDtDsTw2qt9wp7jd7lWUlFcaSqqbhNHI+5SV08c1VUVHLG1Fke+JOqNGRtRVa1iNRqN8+nuksOnlYslNn2X3i301IlvtVqudbCtHa6VFRUiiZDFG6VURrWpJUOmlRrdkeiK7cO+gADKvc3+wnIfWBkn4xTVRlXub3YTkPrAyT8YpqoAAAAAAAAAAAAAAAAAAAAAAAAAAAAAAAAAAAAAAAAAAAAAAAAAAAAAAAAAZU7m92E5B6wMk/GKarMAcOGpOvnDthV4wKfg41KyTvnKLxeY6+lWmp4nxVNU58aNbI7n/g5VXmRq7qqbdW6hv8GVfHB119AvVX63R+8PHB129ArVX63R+8BqoGVfHB129ArVX63R+8PHB129ArVX63R+8BqoGVfHB129ArVX63R+8PHB129AvVX63R+8BqoGRbnxwau2attNuunA3qhTVN9rHW+3RPrKPepqG081Q6NvledIaed/8AxG49/wAcHXb0CtVfrdH7wGqwZU8cHXb0CtVfrdH7w8cHXb0CtVfrdH7wGqwZU8cHXb0CtVfrdH7w8cHXb0CtVfrdH7wGqwZU8cHXb0CtVfrdH7w8cHXb0CtVfrdH7wH73N/sJyH1gZJ+MU1UZq4AcQzLC9Errbs6xG641cqzML1c20FzhSOdkFRP0sSqiKrV3a5OtrlTdFTfqU0qAAAAAAAAAAAAAAAAAAAAAAAAAAAAAAAAAAAAAAAAAAAAAAAAAAAAAAAAAAAAAAAAAAAEq1k7RdCfWBWeyt+KqSrWTtF0J9YFZ7K34qoAAAAAAAAAAAAAAAAAAAAAAAAAAAAAAAAAAAAAAAAAAAAAAAAAAAAAAAAAAAAAAAAAAAAAAAAAAAAABKtZO0XQn1gVnsrfiqkq1k7RdCfWBWeyt+KqAAAAAAAAAAAAAAAAAAAAAAAAAAAAAAAAAAAAAAAAAAAAAAAAAAAAAAAAAAAAAAAAAAAAAAAAAAAAHWcr1CsGJVMFpnbV3K9VjFkpLPbYenrJ2ouyvRm6IxiL1LJI5jE+VyHRct1Ey+x0zK/NczwPS+gmRXRR3SoS4V8rU8+ydJDEx/8ARvTp/Vfkr4mZph6xz08vGeUe+Wvk9iZrORW0RFYty111t92sRN7R01rWYjqxdx5a9cWehvElheN4nT2nKbRe7y2+afpWWtFmprhLb6m1TW9HROjSbldcHTN6RHO3lgRXKiOav0Q0+tmW2XBrDas+yVMgyWlt8Ed3ujaeOBtXWIxOmkbHG1rGMV/NyojU2btvuu6mPsv4jeDrIr9YrpnHGbNWXjFK51wtEsdhoHNoqpY3RrJGrrbIv8L1/wBypujXedrVSq4Lr3jWbLG7THipwrKXyPSOOiyC3x089Q5fMxj4XU6o7+qQv/8AqQxn8OZ0086/+mlb0Szdazabcv6ePHnOFER4zMR2tGg6DDqjPYaiK3apY4/FpJntiiuTKjvq0zvVdmtSqRrViVV8yTsi36kRXKd+85aw8WuJ7M/j8GDmsjj5LT11eE8piYms9ulomYnTrpPCeEgAJFQAAAAAAAAAAAAAAAAAAAAAAAAAAAAAAAAAAAAAAAAAAAAAAAAAAAAAAAAAAAAAAAAAAA6XnuWXqkraHCMIihmya9NfIyWZvPBa6RqoklZM3dFciKqNYzqWR6onU1Hub3J72RsdJI5Gtaiq5yrsiJ/NTBfGdxE1mi/DVdNRLZULBmOs9S6C1yLu2Sms7WqkDWLt1bQPY9U6l5qmZUVF2UqZrFmkRSvOfyj4zMxHdrr0dBsDI0zGJbMY2m7Tt4xrpa2sx1rWtbXmPtbsU+0lvFt3Qqx6ATXTSPhtq23jKZ5FXIsyrXpUzT1O3WrX+Zypvs1URGNbukaMajHO+YWb6j53qRd6i+51llzvddVSdLLLWVLpFc7zcy7r5/6+c6/UVE9XPJVVMz5Zpnukkkeu7nuVd1VV+VVU/g+sHLUw4iZjWY8vDs+c9dUO0dt4+ctauHaa0nnGvG3ZN5j2p7I9mvKsVjgHlpKyroKhlVQ1U1NPGu7ZInqx7V/oqdaHiBYmImNJY9L2w7Rak6THVsjhX7pPqzopUU2Iah1b80wSZEpam33FelfBAqcqpE5UXZu2+7dlRd3KrXLtt9YtKtS8Upcasmc6dX1150nyORkMfSS88uL1UipyxvVVVUpVc5reVVVIVcxWqsLkVn+dU3b3K3iEXEdU5dAcymSrw7UWN9t7zqFV0bap6K1iI3/58ysXzJs9yruqJtQx8D1OmJhcNPL8u2OWnGNJh1mzNqTtHeymdjfm0e++nSe3EiNfV3423v2dt6ltI+3YOj6S19elirsRvFVJU3HELhJZJp5V3fPCxrJKWZ383PppYFcvyv5zvBdw7+spFv14e5zedys5LMWwJnXSeE9JjnFo7pjSY7pAAfaqAAAAAAAAAAAAAAAAAAAAAAAAAAAAAAAAAAAAAAAAAAAAAAAAAAAAAAAAAAAAAAAA6drNcKi06P51daRypPRY1c6iJU86PZSyOT//AFD5Td2gq6i1Z9plglLK5LVbsXSaCJF8hr0mki3RP/qxqf8AQ+uuWWGLKcWvOMTuRsV3t9RQPVfkbLG5ir/2cfK7ureEXHONHNKte4qKR1RQ0q2C+bqn+lqGKqOiX+bknSoav8ujUoY/0cetp5cPnMfO1XV7LicbZWNhYftRv+da3j/TCxY9+nV8vQAX3KAAAHatKb5cMa1Lxe+2mZ8NXR3amfE9i7K13SIm6f8Ac6qWzgy0prNZOJLCcNgpHz0zrlHVVytXZY6aJeeR/X5+VqK7b5dlIM1/AvHbEx8WtsGP3pl7dIvWZ7orMTMz3RETM90P9AGPJ3trTm1HH1Rz2Ow3B6f/ANr5LhC5f+eSmi/7Id8Og4A74ZzjPMtZ107q+nsFM/8A/kZQxr0ip/xU1FSz/mNTvwy3sa99v+pNtcM1FZ5xTCie6YwqRMeMTGk94ACdkgAAAAAAAAAAAAAAAAAAAAAAAAAAAAAAAAAAAAAAAAAAAAAAAAAAAAAAAAAAAAAAABBdXdN8Vu9JkWl2eQp+w2qMithqeTdtpvb06918zWzua17FVURZUkYv/nNRb0elerLasitVVY75b4a6gronQ1FPM3mZIxfOip/+bEGYwfXV06/rh4T+fRqbJ2jOzsfftruzprpprGkxMWjXhvVmImOk8azwmX+cjif4YNQuGDUKsxDL7bK6gdIr7bcmNVYKuBVXlc122y9Sf08yoqI5HNbGz/RbqVpFRXfE5cC1Tw2fU/Bdnd7VHIk17tDV8ybfxVTWpsiPYvSqibPZN1uXBefdySw/OqupunDNrVbKqFjnOms94VUqqNPkjejU52v38/SNj238xBh5m1J9XixOvn8OvjXXviOTXzmxMLNVnN5G9d2efSmvdaeFPu4s0mPs2vGlnzGBsut7knxmU9S6Kkw+yVUSLskrb7SsRyfz2c/c7xg3cc9a6trbpqrmuNYda4Hb1bn1bZpGR/K5rmbx7/8A2VE/qTTmadk/2z+DLrsXMWmI3sP/AC4c+UWmZ8IiZ7IYIs9numQXOns9loJq2tq3pHDBC3mc9y//AJ5/Mnyn2T4H+Fe5cKGDR3q80cU2seo0K0lqoZI1clpptkc+edu27WRoqPfv1/wx+S+VWJ3Thr4WdDtDOjm0HxJdQ8sREbJmN1b0dqpHp1LJFLsqSKnUqMg6V26qnPGjlU1VhWBRYvPWXy73Wa+ZJdNkr7tURoxzmIqqyCGNN0hgZuvLGir51c5XuVXLWm183MbvCv668pns01iJ4zOukNyuDlfR7DtONO9izGmkxMTPduz9KtJ4b83it71+hSsVm13J4hjFDhuM2/Gbc+SSGghRiyyLvJPIqq6SV6/K971c9y/KrlOYANCtYpEVryhyGNjXzGJbGxZ1taZmZ7ZnjMgAPUYAAAAAAAAAAAAAAAAAAAAAAAAAAAAAAAAAAAAAAAAAAAAAAAAAAAAAAAAAAAAAAAAAABPNZsSxW74nXXu7Yzaa240MXNS1dRRRyTQL5t2PciuavWvmVADP2n9Ws6/0G/nWH4T8nzJzjWDVqy5JJbrNqjl1BSNk5Ugpr3UxRom/m5WvRDXvCLa7ZqBA67Z5bqXJK6mjSWCpu8LayWJ/V5TXyo5Wr1r1ooBzGH7ceMP3PN/V8T7s/JrtrWsajGNRrWpsiImyIh+gHbRyfy9bnIAD14AAAAAAAAAAAAAAAAAAAAAAAAAAAAAP/9k=;" vertex="1" parent="1">
          <mxGeometry width="477" height="882" as="geometry" />
        </mxCell>
        <mxCell id="uleVtz_lJedK2zeiN2dC-2" value="Points added to final score" style="rounded=0;whiteSpace=wrap;html=1;" vertex="1" parent="1">
          <mxGeometry x="340" y="580" width="120" height="60" as="geometry" />
        </mxCell>
        <mxCell id="uleVtz_lJedK2zeiN2dC-3" value="Update view with next question" style="rounded=0;whiteSpace=wrap;html=1;" vertex="1" parent="1">
          <mxGeometry x="340" y="411" width="120" height="60" as="geometry" />
        </mxCell>
      </root>
    </mxGraphModel>
  </diagram>
</mxfile>
